/* XPM */
static char *dummy[]={
"32 32 95 2",
"Qt c #000000",
".h c #ff0000",
".C c #ff0303",
".v c #ff0606",
"#q c #ff0707",
".M c #ff0909",
".A c #ff0a0a",
".u c #ff0c0c",
".x c #ff0d0d",
".I c #ff0e0e",
"#t c #ff0f0f",
"#x c #ff1010",
".B c #ff1414",
"#y c #ff1515",
".w c #ff1c1c",
".N c #ff2222",
".b c #ff2929",
".J c #ff2a2a",
"#g c #ff3030",
".E c #ff3535",
".Y c #ff3737",
".2 c #ff3c3c",
".3 c #ff4242",
".4 c #ff4343",
"#m c #ff4848",
".6 c #ff4a4a",
"#l c #ff4d4d",
".V c #ff5555",
"#d c #ff5656",
".T c #ff5858",
".0 c #ff5959",
".8 c #ff5b5b",
"#c c #ff5c5c",
".W c #ff6060",
"#a c #ff6262",
".X c #ff6363",
"#s c #ff6666",
".m c #ff6a6a",
".q c #ff6d6d",
"#. c #ff7070",
"#e c #ff7373",
"#p c #ff7979",
"#u c #ff7a7a",
".e c #ff7b7b",
"#w c #ff7c7c",
".i c #ff7f7f",
".R c #ff8080",
".Q c #ff8383",
".c c #ff8484",
"#j c #ff8888",
".n c #ff8b8b",
".r c #ff8c8c",
".l c #ff8d8d",
".p c #ff9494",
"#n c #ff9b9b",
"## c #ff9c9c",
"#h c #ff9d9d",
"#z c #ff9e9e",
"#k c #ffa1a1",
".z c #ffa6a6",
"#i c #ffa7a7",
".t c #ffaaaa",
"#o c #ffabab",
".s c #ffacac",
"#b c #ffb3b3",
".Z c #ffb4b4",
".5 c #ffb9b9",
".H c #ffbaba",
".y c #ffbcbc",
".d c #ffbdbd",
".j c #ffbfbf",
".9 c #ffc2c2",
".S c #ffc6c6",
".g c #ffcfcf",
".O c #ffd3d3",
".U c #ffd4d4",
".a c #ffdbdb",
".o c #ffdcdc",
".f c #ffdede",
".k c #ffdfdf",
"#A c #ffe2e2",
".D c #ffe3e3",
".L c #ffe5e5",
".1 c #ffeaea",
".F c #ffebeb",
"#C c #fff0f0",
"#r c #fff2f2",
".7 c #fff5f5",
".P c #fff7f7",
"#v c #fff8f8",
"#B c #fff9f9",
"#f c #fffbfb",
".K c #fffcfc",
".G c #fffefe",
".# c #ffffff",
"QtQtQtQtQtQtQtQtQtQtQtQtQtQtQtQtQtQtQtQtQtQtQtQtQtQtQtQtQtQtQtQt",
"Qt.#.#.#.#.#.#.#.#.#.#.#.#.#.#.#.#.#.#.#.#.#.#.#.#.#.#.#.#.#.#Qt",
"Qt.#.#.#.#.#.#.#.#.#.#.#.#.#.#.#.#.#.#.#.#.#.#.#.#.#.#.#.#.#.#Qt",
"Qt.#.#.#.#.#.#.#.#.#.#.#.#.#.#.#.#.#.#.#.#.#.#.#.#.#.#.#.#.#.#Qt",
"Qt.#.#.#.#.#.#.#.#.#.#.#.#.#.#.#.#.#.#.#.#.#.#.#.#.#.#.#.#.#.#Qt",
"Qt.#.#.#.#.#.#.#.#.#.#.#.#.#.#.#.#.#.#.#.#.#.#.#.#.#.#.#.#.#.#Qt",
"Qt.#.#.#.#.#.#.#.#.#.#.#.#.#.#.#.#.#.#.#.#.#.#.#.#.#.#.#.#.#.#Qt",
"Qt.#.#.#.#.#.#.#.#.#.#.#.#.#.#.#.#.#.#.#.#.#.#.#.#.#.#.#.#.#.#Qt",
"Qt.#.#.#.#.#.#.#.#.#.#.#.#.#.#.#.#.#.#.#.#.#.#.#.#.#.#.a.b.c.#Qt",
"Qt.#.d.e.f.#.#.#.#.#.#.#.#.#.#.#.#.#.#.#.#.#.#.#.#.#.#.g.h.i.#Qt",
"Qt.#.i.h.j.#.#.#.#.#.#.#.#.#.#.#.#.#.#.#.#.#.#.#.#.#.#.g.h.i.#Qt",
"Qt.#.i.h.j.#.#.#.#.#.#.#.#.#.#.#.#.#.#.#.#.#.#.#.#.#.#.g.h.i.#Qt",
"Qt.#.i.h.j.#.#.#.#.#.#.#.#.k.l.m.n.f.#.#.#.#.#.o.p.q.r.s.h.i.#Qt",
"Qt.#.i.h.j.#.#.#.#.#.#.#.t.u.v.w.h.x.y.#.#.#.z.A.h.B.C.h.h.i.#Qt",
"Qt.#.i.h.j.#.#.#.#.#.#.D.x.E.F.G.H.I.J.K.#.L.M.N.O.#.P.Q.h.i.#Qt",
"Qt.#.i.h.j.#.#.#.#.#.#.R.h.S.#.#.#.T.h.U.#.R.h.s.#.#.#.g.h.i.#Qt",
"Qt.#.i.h.j.#.#.#.#.#.#.V.h.W.X.X.X.Y.h.Z.#.0.h.1.#.#.#.g.h.i.#Qt",
"Qt.#.i.h.j.#.#.#.#.#.#.2.h.3.4.4.4.4.4.5.#.6.h.7.#.#.#.g.h.i.#Qt",
"Qt.#.i.h.j.#.#.#.#.#.#.8.h.9.#.#.#.#.#.#.##..h.O.#.#.#.g.h.i.#Qt",
"Qt.#.i.h.j.#.#.#.#.#.###.h#a.#.#.#.#.#.#.##b.h#c.G.#.#.g.h.i.#Qt",
"Qt.#.i.h#d#e#e#e#e#e.K#f#g.h.8#h#i#j#k.#.#.G#l.h#m#n#o#p.h.i.#Qt",
"Qt.#.Q#q#q#q#q#q#q#q#f.##r#s#t.h.h.C#u.#.#.##v#w#x.h.h.h#y#z.#Qt",
"Qt.#.#.#.#.#.#.#.#.#.#.#.#.#.G#A.k#B.#.#.#.#.#.#.G.D.a#C.G.#.#Qt",
"Qt.#.#.#.#.#.#.#.#.#.#.#.#.#.#.#.#.#.#.#.#.#.#.#.#.#.#.#.#.#.#Qt",
"Qt.#.#.#.#.#.#.#.#.#.#.#.#.#.#.#.#.#.#.#.#.#.#.#.#.#.#.#.#.#.#Qt",
"Qt.#.#.#.#.#.#.#.#.#.#.#.#.#.#.#.#.#.#.#.#.#.#.#.#.#.#.#.#.#.#Qt",
"Qt.#.#.#.#.#.#.#.#.#.#.#.#.#.#.#.#.#.#.#.#.#.#.#.#.#.#.#.#.#.#Qt",
"Qt.#.#.#.#.#.#.#.#.#.#.#.#.#.#.#.#.#.#.#.#.#.#.#.#.#.#.#.#.#.#Qt",
"Qt.#.#.#.#.#.#.#.#.#.#.#.#.#.#.#.#.#.#.#.#.#.#.#.#.#.#.#.#.#.#Qt",
"Qt.#.#.#.#.#.#.#.#.#.#.#.#.#.#.#.#.#.#.#.#.#.#.#.#.#.#.#.#.#.#Qt",
"Qt.#.#.#.#.#.#.#.#.#.#.#.#.#.#.#.#.#.#.#.#.#.#.#.#.#.#.#.#.#.#Qt",
"QtQtQtQtQtQtQtQtQtQtQtQtQtQtQtQtQtQtQtQtQtQtQtQtQtQtQtQtQtQtQtQt"};
